# xmcd
#
# Track frame offsets:
#	150
#	12665
#	26240
#	41192
#	59635
#	75382
#	95162
#	112952
#	128222
#	144490
#	157250
#	172415
#
# Disc length: 2497 seconds
#
# Revision: 1
# Processed by: cddbd v1.4PL0 Copyright (c) Steve Scherf et al.
# Submitted via: audiograbber 1.80
#
DISCID=b409bf0c
DTITLE=Kenny Rogers - There You Go Again
DYEAR=1900
DGENRE=
TTITLE0=There You Go Again
TTITLE1=He Will, She Knows
TTITLE2=I Wish I Could Say That
TTITLE3=Homeland
TTITLE4=When We Made Love
TTITLE5=Until Forever's Gone
TTITLE6=Crazy Me
TTITLE7=Blue Train
TTITLE8=I Do It For Your Love
TTITLE9=What That Means
TTITLE10=I Won't Forget
TTITLE11=All That You Could Be
EXTD=
EXTT0=
EXTT1=
EXTT2=
EXTT3=
EXTT4=
EXTT5=
EXTT6=
EXTT7=
EXTT8=
EXTT9=
EXTT10=
EXTT11=
PLAYORDER=
